<?xml version="1.0" standalone="no"?>
<!DOCTYPE svg PUBLIC "-//W3C//DTD SVG 20010904//EN"
 "http://www.w3.org/TR/2001/REC-SVG-20010904/DTD/svg10.dtd">
<svg version="1.0" xmlns="http://www.w3.org/2000/svg"
 width="512.000000pt" height="512.000000pt" viewBox="0 0 512.000000 512.000000"
 preserveAspectRatio="xMidYMid meet">

<g transform="translate(0.000000,512.000000) scale(0.100000,-0.100000)"
fill="#000000" stroke="none">
<path d="M345 5106 c-84 -21 -147 -57 -211 -121 -65 -65 -105 -136 -123 -223
-16 -76 -16 -4329 0 -4404 37 -172 175 -310 347 -347 75 -16 4328 -16 4404 0
170 36 311 178 347 347 16 76 16 4329 0 4404 -37 172 -176 311 -347 347 -81
17 -4349 14 -4417 -3z m4395 -306 c26 -13 47 -34 60 -60 20 -39 20 -54 20
-2180 0 -2126 0 -2141 -20 -2180 -13 -26 -34 -47 -60 -60 -39 -20 -54 -20
-2181 -20 l-2141 0 -40 22 c-24 14 -48 38 -59 60 -18 36 -19 95 -19 2180 1
2044 2 2145 19 2177 10 18 35 44 57 57 l39 24 2143 0 c2128 0 2143 0 2182 -20z"/>
<path d="M988 3889 c-23 -12 -46 -35 -58 -59 -20 -39 -20 -57 -20 -1270 0
-1214 0 -1231 20 -1270 23 -45 80 -80 130 -80 50 0 107 35 130 80 19 38 20 58
20 580 l0 540 410 0 c436 0 495 5 614 51 129 51 279 174 354 291 75 118 109
223 119 368 23 365 -235 699 -599 774 -65 13 -158 16 -580 16 -481 -1 -505 -2
-540 -21z m1064 -290 c87 -18 158 -58 223 -123 139 -140 172 -343 84 -518 -60
-118 -179 -210 -307 -237 -34 -7 -197 -11 -447 -11 l-395 0 0 450 0 450 395 0
c251 0 413 -4 447 -11z"/>
<path d="M3655 3896 c-84 -21 -147 -57 -210 -121 -65 -65 -105 -137 -124 -223
-6 -31 -11 -153 -11 -297 l0 -245 -90 0 c-112 0 -159 -20 -190 -80 -25 -50
-25 -90 0 -140 31 -60 78 -80 190 -80 l90 0 0 -690 c0 -673 1 -692 20 -730 23
-45 80 -80 130 -80 50 0 107 35 130 80 19 38 20 57 20 730 l0 690 240 0 c222
0 244 2 280 20 45 23 80 80 80 130 0 50 -35 107 -80 130 -36 18 -58 20 -280
20 l-240 0 0 240 c0 275 5 297 78 338 37 21 52 22 221 22 162 0 186 2 221 20
45 23 80 80 80 130 0 50 -35 107 -80 130 -35 18 -58 20 -232 19 -118 0 -212
-6 -243 -13z"/>
</g>
</svg>
